<?xml version="1.0" encoding="UTF-8"?>
<!-- Generated by Pixelmator Pro 2.4.2 -->
<svg width="3300" height="2200" viewBox="0 0 3300 2200" xmlns="http://www.w3.org/2000/svg" xmlns:xlink="http://www.w3.org/1999/xlink">
    <path id="Path" fill="#1e1e1e" stroke="none" d="M 0 0 L 3300 0 L 3300 2200 L 0 2200 Z"/>
    <g id="devicesgoxlrlogo-1">
        <g id="Notes">
            <path id="artboard" fill="#ffffff" stroke="none" d="M 3300 0 L 0 0 L 0 2200 L 3300 2200 L 3300 0 Z"/>
            <path id="Vector" fill="none" stroke="#000000" stroke-width="0.5" stroke-linecap="round" stroke-linejoin="round" d="M 263 292 L 3036 292"/>
            <text id="WeightScale-Variations" xml:space="preserve" x="261" y="320" font-family="Helvetica" font-size="13" font-weight="700" fill="#000000">Weight/Scale Variations</text>
            <text id="Ultralight" xml:space="preserve" x="530" y="320" font-family="Helvetica" font-size="13" fill="#000000">Ultralight</text>
            <text id="Thin" xml:space="preserve" x="842" y="320" font-family="Helvetica" font-size="13" fill="#000000">Thin</text>
            <text id="Light" xml:space="preserve" x="1136" y="320" font-family="Helvetica" font-size="13" fill="#000000">Light</text>
            <text id="Regular" xml:space="preserve" x="1425" y="320" font-family="Helvetica" font-size="13" fill="#000000">Regular</text>
            <text id="Medium" xml:space="preserve" x="1720" y="320" font-family="Helvetica" font-size="13" fill="#000000">Medium</text>
            <text id="Semibold" xml:space="preserve" x="2013" y="320" font-family="Helvetica" font-size="13" fill="#000000">Semibold</text>
            <text id="Bold" xml:space="preserve" x="2324" y="320" font-family="Helvetica" font-size="13" fill="#000000">Bold</text>
            <text id="Heavy" xml:space="preserve" x="2616" y="320" font-family="Helvetica" font-size="13" fill="#000000">Heavy</text>
            <text id="Black" xml:space="preserve" x="2915" y="320" font-family="Helvetica" font-size="13" fill="#000000">Black</text>
            <path id="Vector2" fill="none" stroke="#000000" stroke-width="0.5" stroke-linecap="round" stroke-linejoin="round" d="M 263 1903 L 3036 1903"/>
            <g id="Group">
                <path id="Vector3" fill="#000000" stroke="none" d="M 272.247986 1933.829956 C 273.32901 1933.829956 274.343994 1933.619995 275.295013 1933.209961 C 276.244995 1932.800049 277.084015 1932.22998 277.809998 1931.51001 C 278.535004 1930.780029 279.105011 1929.939941 279.519012 1928.98999 C 279.932007 1928.040039 280.139008 1927.02002 280.139008 1925.949951 C 280.139008 1924.869995 279.932007 1923.859985 279.519012 1922.910034 C 279.105011 1921.959961 278.533997 1921.119995 277.804993 1920.390015 C 277.075012 1919.660034 276.235992 1919.089966 275.285004 1918.680054 C 274.334991 1918.27002 273.319 1918.069946 272.238007 1918.069946 C 271.164001 1918.069946 270.152008 1918.27002 269.200989 1918.680054 C 268.251007 1919.089966 267.414001 1919.660034 266.69101 1920.390015 C 265.968994 1921.119995 265.401001 1921.959961 264.987 1922.910034 C 264.574005 1923.859985 264.367004 1924.869995 264.367004 1925.949951 C 264.367004 1927.02002 264.574005 1928.040039 264.987 1928.98999 C 265.401001 1929.939941 265.970001 1930.780029 266.696014 1931.51001 C 267.421997 1932.22998 268.26001 1932.800049 269.210999 1933.209961 C 270.161011 1933.619995 271.174011 1933.829956 272.247986 1933.829956 Z M 272.247986 1932.349976 C 271.363007 1932.349976 270.533997 1932.180054 269.763 1931.849976 C 268.990997 1931.52002 268.313995 1931.069946 267.730988 1930.47998 C 267.148987 1929.890015 266.692993 1929.209961 266.364014 1928.439941 C 266.035004 1927.660034 265.871002 1926.829956 265.871002 1925.949951 C 265.871002 1925.060059 266.033997 1924.22998 266.359009 1923.459961 C 266.684998 1922.680054 267.139008 1922 267.721985 1921.420044 C 268.303986 1920.829956 268.980988 1920.369995 269.752991 1920.050049 C 270.523987 1919.719971 271.352997 1919.550049 272.238007 1919.550049 C 273.130005 1919.550049 273.963989 1919.719971 274.738007 1920.050049 C 275.513 1920.369995 276.192993 1920.829956 276.778992 1921.420044 C 277.36499 1922 277.822998 1922.680054 278.151001 1923.459961 C 278.480011 1924.22998 278.644012 1925.060059 278.644012 1925.949951 C 278.644012 1926.829956 278.480011 1927.660034 278.151001 1928.439941 C 277.822998 1929.209961 277.36499 1929.890015 276.778992 1930.47998 C 276.192993 1931.069946 275.515015 1931.52002 274.743011 1931.849976 C 273.971985 1932.180054 273.140015 1932.349976 272.247986 1932.349976 Z M 268.653992 1925.949951 C 268.653992 1926.160034 268.722992 1926.339966 268.859009 1926.469971 C 268.996002 1926.609985 269.178009 1926.670044 269.406006 1926.670044 L 271.515991 1926.670044 L 271.515991 1928.790039 C 271.515991 1929.01001 271.580994 1929.180054 271.710999 1929.319946 C 271.841003 1929.459961 272.016998 1929.530029 272.238007 1929.530029 C 272.453003 1929.530029 272.631012 1929.459961 272.770996 1929.319946 C 272.910004 1929.180054 272.980011 1929.01001 272.980011 1928.790039 L 272.980011 1926.670044 L 275.089996 1926.670044 C 275.311005 1926.670044 275.48999 1926.609985 275.627014 1926.469971 C 275.764008 1926.339966 275.832001 1926.160034 275.832001 1925.949951 C 275.832001 1925.72998 275.764008 1925.550049 275.627014 1925.410034 C 275.48999 1925.280029 275.311005 1925.209961 275.089996 1925.209961 L 272.980011 1925.209961 L 272.980011 1923.099976 C 272.980011 1922.880005 272.910004 1922.699951 272.770996 1922.560059 C 272.631012 1922.420044 272.453003 1922.349976 272.238007 1922.349976 C 272.016998 1922.349976 271.841003 1922.420044 271.710999 1922.560059 C 271.580994 1922.699951 271.515991 1922.880005 271.515991 1923.099976 L 271.515991 1925.209961 L 269.406006 1925.209961 C 269.178009 1925.209961 268.996002 1925.280029 268.859009 1925.410034 C 268.722992 1925.550049 268.653992 1925.72998 268.653992 1925.949951 Z"/>
            </g>
            <g id="Group2">
                <path id="Vector4" fill="#000000" stroke="none" d="M 293.575989 1935.910034 C 294.937012 1935.910034 296.217987 1935.650024 297.419006 1935.130005 C 298.619995 1934.609985 299.678986 1933.890015 300.596985 1932.969971 C 301.515015 1932.050049 302.234985 1930.98999 302.756012 1929.790039 C 303.276001 1928.589966 303.536987 1927.310059 303.536987 1925.949951 C 303.536987 1924.589966 303.276001 1923.310059 302.756012 1922.109985 C 302.234985 1920.910034 301.515015 1919.849976 300.596985 1918.930054 C 299.678986 1918.01001 298.618011 1917.290039 297.414001 1916.77002 C 296.209015 1916.25 294.927002 1915.98999 293.56601 1915.98999 C 292.204987 1915.98999 290.924988 1916.25 289.722992 1916.77002 C 288.522003 1917.290039 287.463989 1918.01001 286.549988 1918.930054 C 285.63501 1919.849976 284.916992 1920.910034 284.395996 1922.109985 C 283.875 1923.310059 283.61499 1924.589966 283.61499 1925.949951 C 283.61499 1927.310059 283.875 1928.589966 284.395996 1929.790039 C 284.916992 1930.98999 285.635986 1932.050049 286.553986 1932.969971 C 287.471985 1933.890015 288.532013 1934.609985 289.733002 1935.130005 C 290.93399 1935.650024 292.214996 1935.910034 293.575989 1935.910034 Z M 293.575989 1934.25 C 292.424011 1934.25 291.346008 1934.040039 290.343994 1933.609985 C 289.341003 1933.180054 288.459991 1932.579956 287.701996 1931.819946 C 286.942993 1931.060059 286.351013 1930.180054 285.924988 1929.180054 C 285.497986 1928.180054 285.285004 1927.099976 285.285004 1925.949951 C 285.285004 1924.800049 285.497986 1923.719971 285.924988 1922.719971 C 286.351013 1921.709961 286.941986 1920.829956 287.696991 1920.069946 C 288.451996 1919.310059 289.330994 1918.709961 290.334015 1918.290039 C 291.335999 1917.859985 292.414001 1917.650024 293.56601 1917.650024 C 294.717987 1917.650024 295.798004 1917.859985 296.803009 1918.290039 C 297.80899 1918.709961 298.69101 1919.310059 299.450012 1920.069946 C 300.208008 1920.829956 300.802002 1921.709961 301.231995 1922.719971 C 301.661987 1923.719971 301.877014 1924.800049 301.877014 1925.949951 C 301.877014 1927.099976 301.664001 1928.180054 301.237 1929.180054 C 300.811005 1930.180054 300.21701 1931.060059 299.454987 1931.819946 C 298.692993 1932.579956 297.811005 1933.180054 296.808014 1933.609985 C 295.806 1934.040039 294.727997 1934.25 293.575989 1934.25 Z M 289.045013 1925.949951 C 289.045013 1926.180054 289.122986 1926.380005 289.278992 1926.530029 C 289.434998 1926.680054 289.636993 1926.75 289.88501 1926.75 L 292.756012 1926.75 L 292.756012 1929.630005 C 292.756012 1929.880005 292.830994 1930.079956 292.980011 1930.22998 C 293.130005 1930.380005 293.321991 1930.459961 293.556 1930.459961 C 293.803986 1930.459961 294.003998 1930.380005 294.157013 1930.22998 C 294.309998 1930.079956 294.385986 1929.880005 294.385986 1929.630005 L 294.385986 1926.75 L 297.266998 1926.75 C 297.515015 1926.75 297.714996 1926.680054 297.868011 1926.530029 C 298.020996 1926.380005 298.096985 1926.180054 298.096985 1925.949951 C 298.096985 1925.699951 298.020996 1925.5 297.868011 1925.349976 C 297.714996 1925.199951 297.515015 1925.119995 297.266998 1925.119995 L 294.385986 1925.119995 L 294.385986 1922.25 C 294.385986 1921.98999 294.309998 1921.790039 294.157013 1921.640015 C 294.003998 1921.47998 293.803986 1921.410034 293.556 1921.410034 C 293.321991 1921.410034 293.130005 1921.48999 292.980011 1921.640015 C 292.830994 1921.800049 292.756012 1922 292.756012 1922.25 L 292.756012 1925.119995 L 289.88501 1925.119995 C 289.631012 1925.119995 289.427002 1925.199951 289.273987 1925.349976 C 289.121002 1925.5 289.045013 1925.699951 289.045013 1925.949951 Z"/>
            </g>
            <g id="Group3">
                <path id="Vector5" fill="#000000" stroke="none" d="M 320.617004 1938.660034 C 322.01001 1938.660034 323.339996 1938.449951 324.605988 1938.01001 C 325.872009 1937.579956 327.036011 1936.969971 328.096985 1936.189941 C 329.15799 1935.410034 330.080994 1934.48999 330.865997 1933.430054 C 331.649994 1932.369995 332.259003 1931.199951 332.691986 1929.930054 C 333.125 1928.660034 333.341003 1927.339966 333.341003 1925.949951 C 333.341003 1924.560059 333.125 1923.22998 332.691986 1921.959961 C 332.259003 1920.689941 331.649994 1919.530029 330.865997 1918.469971 C 330.080994 1917.410034 329.15799 1916.47998 328.096985 1915.699951 C 327.036011 1914.920044 325.871002 1914.310059 324.601013 1913.869995 C 323.332001 1913.439941 322 1913.219971 320.606995 1913.219971 C 319.213989 1913.219971 317.884003 1913.439941 316.618011 1913.869995 C 315.351013 1914.310059 314.188995 1914.920044 313.131012 1915.699951 C 312.072998 1916.47998 311.152008 1917.410034 310.368011 1918.469971 C 309.583008 1919.530029 308.976013 1920.689941 308.54599 1921.959961 C 308.117004 1923.22998 307.902008 1924.560059 307.902008 1925.949951 C 307.902008 1927.339966 308.118011 1928.660034 308.550995 1929.930054 C 308.984009 1931.199951 309.591003 1932.369995 310.372986 1933.430054 C 311.153992 1934.48999 312.075012 1935.410034 313.135986 1936.189941 C 314.196991 1936.969971 315.360992 1937.579956 316.627014 1938.01001 C 317.894012 1938.449951 319.222992 1938.660034 320.617004 1938.660034 Z M 320.617004 1936.849976 C 319.411987 1936.849976 318.265015 1936.660034 317.174011 1936.300049 C 316.084015 1935.930054 315.085999 1935.410034 314.181 1934.75 C 313.276001 1934.079956 312.48999 1933.300049 311.822998 1932.390015 C 311.154999 1931.47998 310.639008 1930.47998 310.274994 1929.390015 C 309.910004 1928.300049 309.727997 1927.150024 309.727997 1925.949951 C 309.727997 1924.73999 309.910004 1923.589966 310.274994 1922.5 C 310.639008 1921.410034 311.153992 1920.410034 311.817993 1919.5 C 312.481995 1918.589966 313.265991 1917.800049 314.17099 1917.140015 C 315.075989 1916.47998 316.074005 1915.959961 317.165009 1915.599976 C 318.255005 1915.22998 319.402008 1915.050049 320.606995 1915.050049 C 321.817993 1915.050049 322.968994 1915.22998 324.05899 1915.599976 C 325.149994 1915.959961 326.148987 1916.47998 327.057007 1917.140015 C 327.964996 1917.800049 328.752991 1918.589966 329.420013 1919.5 C 330.088013 1920.410034 330.604004 1921.410034 330.967987 1922.5 C 331.333008 1923.589966 331.515015 1924.73999 331.515015 1925.949951 C 331.515015 1927.150024 331.333008 1928.300049 330.967987 1929.390015 C 330.604004 1930.47998 330.088989 1931.47998 329.424988 1932.390015 C 328.760986 1933.300049 327.975006 1934.079956 327.066986 1934.75 C 326.158997 1935.410034 325.158997 1935.930054 324.069 1936.300049 C 322.977997 1936.660034 321.828003 1936.849976 320.617004 1936.849976 Z M 314.845001 1925.949951 C 314.845001 1926.199951 314.931 1926.410034 315.104004 1926.579956 C 315.277008 1926.75 315.496002 1926.829956 315.763 1926.829956 L 319.708008 1926.829956 L 319.708008 1930.780029 C 319.708008 1931.050049 319.790985 1931.27002 319.957001 1931.439941 C 320.122986 1931.609985 320.337006 1931.699951 320.596985 1931.699951 C 320.864014 1931.699951 321.084015 1931.619995 321.256012 1931.449951 C 321.428986 1931.280029 321.515015 1931.060059 321.515015 1930.780029 L 321.515015 1926.829956 L 325.470001 1926.829956 C 325.737 1926.829956 325.954987 1926.75 326.123993 1926.579956 C 326.294006 1926.410034 326.377991 1926.199951 326.377991 1925.949951 C 326.377991 1925.680054 326.294006 1925.449951 326.123993 1925.290039 C 325.954987 1925.119995 325.737 1925.030029 325.470001 1925.030029 L 321.515015 1925.030029 L 321.515015 1921.089966 C 321.515015 1920.810059 321.428986 1920.589966 321.256012 1920.420044 C 321.084015 1920.23999 320.864014 1920.160034 320.596985 1920.160034 C 320.337006 1920.160034 320.122986 1920.23999 319.957001 1920.420044 C 319.790985 1920.589966 319.708008 1920.810059 319.708008 1921.089966 L 319.708008 1925.030029 L 315.763 1925.030029 C 315.48999 1925.030029 315.268005 1925.119995 315.098999 1925.290039 C 314.929993 1925.449951 314.845001 1925.680054 314.845001 1925.949951 Z"/>
            </g>
            <text id="Design-Variations" xml:space="preserve" x="261" y="1951" font-family="Helvetica" font-size="13" font-weight="700" fill="#000000">Design Variations</text>
            <text id="Symbols-are-supported-in" xml:space="preserve" x="261" y="1969" font-family="Helvetica" font-size="13" fill="#000000">Symbols are supported in up to nine weights and three scales.</text>
            <text id="For-optimal-layout-with" xml:space="preserve" x="261" y="1987" font-family="Helvetica" font-size="13" fill="#000000">For optimal layout with text and other symbols, vertically align</text>
            <text id="symbols-with-the-adjacent" xml:space="preserve" x="261" y="2005" font-family="Helvetica" font-size="13" fill="#000000">symbols with the adjacent text.</text>
            <path id="Vector6" fill="none" stroke="#00aeef" stroke-width="0.5" stroke-linecap="round" stroke-linejoin="round" d="M 776 1919 L 776 1933"/>
            <g id="Group4">
                <path id="Vector7" fill="#000000" stroke="none" d="M 779.310974 1933.160034 C 779.570984 1933.160034 779.77301 1933.099976 779.916016 1932.98999 C 780.059021 1932.880005 780.176025 1932.689941 780.268005 1932.410034 L 781.526978 1928.969971 L 787.289001 1928.969971 L 788.549011 1932.410034 C 788.640015 1932.689941 788.757019 1932.880005 788.900024 1932.98999 C 789.044006 1933.099976 789.242004 1933.160034 789.495972 1933.160034 C 789.757019 1933.160034 789.963013 1933.079956 790.116028 1932.939941 C 790.268982 1932.800049 790.346008 1932.599976 790.346008 1932.359985 C 790.346008 1932.209961 790.309998 1932.030029 790.237976 1931.829956 L 785.65802 1919.630005 C 785.541016 1919.329956 785.382019 1919.109985 785.179993 1918.959961 C 784.978027 1918.810059 784.721008 1918.72998 784.40802 1918.72998 C 783.802979 1918.72998 783.393005 1919.030029 783.177979 1919.619995 L 778.598022 1931.839966 C 778.526001 1932.040039 778.48999 1932.219971 778.48999 1932.369995 C 778.48999 1932.609985 778.562988 1932.810059 778.710022 1932.949951 C 778.856018 1933.089966 779.057007 1933.160034 779.310974 1933.160034 Z M 782.005981 1927.47998 L 784.379028 1920.910034 L 784.427979 1920.910034 L 786.801025 1927.47998 L 782.005981 1927.47998 Z"/>
            </g>
            <path id="Vector8" fill="none" stroke="#00aeef" stroke-width="0.5" stroke-linecap="round" stroke-linejoin="round" d="M 793.197021 1919 L 793.197021 1933"/>
            <text id="Margins" xml:space="preserve" x="774" y="1951" font-family="Helvetica" font-size="13" font-weight="700" fill="#000000">Margins</text>
            <text id="Leading-and-trailing-margins" xml:space="preserve" x="774" y="1969" font-family="Helvetica" font-size="13" fill="#000000">Leading and trailing margins on the left and right side of each symbol</text>
            <text id="can-be-adjusted-by" xml:space="preserve" x="774" y="1987" font-family="Helvetica" font-size="13" fill="#000000">can be adjusted by modifying the x-location of the margin guidelines.</text>
            <text id="Modifications-are-automatically-applied" xml:space="preserve" x="774" y="2005" font-family="Helvetica" font-size="13" fill="#000000">Modifications are automatically applied proportionally to all</text>
            <text id="scales-and-weights" xml:space="preserve" x="774" y="2023" font-family="Helvetica" font-size="13" fill="#000000">scales and weights.</text>
            <g id="Group5">
                <path id="Vector9" fill="#000000" stroke="none" d="M 1291.839966 1934.869995 L 1293.540039 1936.569946 C 1293.969971 1937.01001 1294.420044 1937.209961 1294.900024 1937.180054 C 1295.380005 1937.150024 1295.849976 1936.869995 1296.310059 1936.359985 L 1307.01001 1924.569946 L 1306.040039 1923.599976 L 1295.430054 1935.280029 C 1295.25 1935.47998 1295.069946 1935.589966 1294.890015 1935.619995 C 1294.709961 1935.640015 1294.51001 1935.540039 1294.27002 1935.300049 L 1293.099976 1934.140015 C 1292.869995 1933.910034 1292.76001 1933.699951 1292.790039 1933.52002 C 1292.819946 1933.339966 1292.939941 1933.160034 1293.140015 1932.97998 L 1304.619995 1922.180054 L 1303.640015 1921.209961 L 1292.050049 1932.099976 C 1291.550049 1932.560059 1291.290039 1933.02002 1291.25 1933.5 C 1291.219971 1933.969971 1291.410034 1934.430054 1291.839966 1934.869995 Z M 1298.26001 1916.670044 C 1298.050049 1916.869995 1297.930054 1917.099976 1297.910034 1917.369995 C 1297.880005 1917.630005 1297.930054 1917.849976 1298.040039 1918.050049 C 1298.160034 1918.22998 1298.329956 1918.369995 1298.560059 1918.459961 C 1298.780029 1918.550049 1299.060059 1918.560059 1299.380005 1918.47998 C 1300.109985 1918.310059 1300.849976 1918.23999 1301.599976 1918.27002 C 1302.349976 1918.300049 1303.079956 1918.550049 1303.790039 1919.02002 L 1303.209961 1920.469971 C 1303.040039 1920.890015 1302.98999 1921.25 1303.069946 1921.560059 C 1303.140015 1921.869995 1303.310059 1922.160034 1303.579956 1922.430054 L 1305.869995 1924.75 C 1306.119995 1925 1306.349976 1925.140015 1306.579956 1925.180054 C 1306.810059 1925.219971 1307.060059 1925.209961 1307.339966 1925.160034 L 1308.400024 1924.959961 L 1309.069946 1925.640015 L 1309.030029 1926.189941 C 1309.01001 1926.439941 1309.040039 1926.670044 1309.119995 1926.880005 C 1309.199951 1927.089966 1309.359985 1927.310059 1309.609985 1927.550049 L 1310.369995 1928.290039 C 1310.609985 1928.530029 1310.869995 1928.660034 1311.150024 1928.670044 C 1311.439941 1928.680054 1311.699951 1928.569946 1311.930054 1928.329956 L 1314.839966 1925.410034 C 1315.069946 1925.180054 1315.189941 1924.920044 1315.180054 1924.650024 C 1315.180054 1924.369995 1315.050049 1924.109985 1314.810059 1923.869995 L 1314.040039 1923.109985 C 1313.800049 1922.869995 1313.579956 1922.699951 1313.380005 1922.609985 C 1313.170044 1922.530029 1312.949951 1922.48999 1312.709961 1922.51001 L 1312.130005 1922.560059 L 1311.48999 1921.930054 L 1311.72998 1920.800049 C 1311.800049 1920.52002 1311.790039 1920.26001 1311.699951 1920.02002 C 1311.599976 1919.77002 1311.410034 1919.5 1311.119995 1919.209961 L 1308.920044 1917.02002 C 1308.089966 1916.199951 1307.199951 1915.579956 1306.26001 1915.160034 C 1305.319946 1914.75 1304.369995 1914.530029 1303.420044 1914.52002 C 1302.469971 1914.5 1301.550049 1914.680054 1300.660034 1915.040039 C 1299.780029 1915.410034 1298.97998 1915.949951 1298.26001 1916.670044 Z M 1299.75 1917.040039 C 1300.359985 1916.599976 1301.01001 1916.280029 1301.699951 1916.099976 C 1302.390015 1915.910034 1303.099976 1915.849976 1303.800049 1915.920044 C 1304.51001 1915.97998 1305.199951 1916.170044 1305.869995 1916.48999 C 1306.540039 1916.800049 1307.150024 1917.23999 1307.699951 1917.790039 L 1310.130005 1920.209961 C 1310.25 1920.319946 1310.319946 1920.439941 1310.349976 1920.550049 C 1310.380005 1920.660034 1310.380005 1920.800049 1310.339966 1920.969971 L 1310.02002 1922.449951 L 1311.52002 1923.939941 L 1312.51001 1923.880005 C 1312.630005 1923.869995 1312.719971 1923.880005 1312.790039 1923.900024 C 1312.849976 1923.930054 1312.939941 1923.98999 1313.030029 1924.079956 L 1313.609985 1924.660034 L 1311.170044 1927.099976 L 1310.589966 1926.530029 C 1310.48999 1926.430054 1310.430054 1926.349976 1310.410034 1926.280029 C 1310.380005 1926.219971 1310.369995 1926.119995 1310.380005 1925.98999 L 1310.449951 1925.01001 L 1308.949951 1923.530029 L 1307.430054 1923.780029 C 1307.26001 1923.810059 1307.140015 1923.819946 1307.040039 1923.800049 C 1306.949951 1923.77002 1306.839966 1923.699951 1306.709961 1923.589966 L 1304.709961 1921.579956 C 1304.579956 1921.469971 1304.51001 1921.349976 1304.48999 1921.25 C 1304.47998 1921.140015 1304.51001 1920.98999 1304.589966 1920.810059 L 1305.459961 1918.719971 C 1304.680054 1917.98999 1303.800049 1917.48999 1302.829956 1917.209961 C 1301.849976 1916.930054 1300.859985 1916.939941 1299.839966 1917.23999 C 1299.76001 1917.26001 1299.709961 1917.23999 1299.689941 1917.189941 C 1299.670044 1917.150024 1299.689941 1917.099976 1299.75 1917.040039 Z"/>
            </g>
            <text id="Exporting" xml:space="preserve" x="1287" y="1951" font-family="Helvetica" font-size="13" font-weight="700" fill="#000000">Exporting</text>
            <text id="Symbols-should-be-outlined" xml:space="preserve" x="1287" y="1969" font-family="Helvetica" font-size="13" fill="#000000">Symbols should be outlined when exporting to ensure the</text>
            <text id="design-is-preserved-when" xml:space="preserve" x="1287" y="1987" font-family="Helvetica" font-size="13" fill="#000000">design is preserved when submitting to Xcode.</text>
            <text id="template-version" xml:space="preserve" x="2944" y="1931" font-family="Helvetica" font-size="13" fill="#000000">Template v.4.0</text>
            <text id="Requires-Xcode-14-or" xml:space="preserve" x="2856" y="1949" font-family="Helvetica" font-size="13" fill="#000000">Requires Xcode 14 or greater</text>
            <text id="Generated-from-devicesgoxlrlogo" xml:space="preserve" x="2823" y="1967" font-family="Helvetica" font-size="13" fill="#000000">Generated from devices.goxlr.logo</text>
            <text id="Typeset-at-100-points" xml:space="preserve" x="2902" y="1985" font-family="Helvetica" font-size="13" fill="#000000">Typeset at 100 points</text>
            <text id="Small" xml:space="preserve" x="261" y="724" font-family="Helvetica" font-size="13" fill="#000000">Small</text>
            <text id="text1" xml:space="preserve" x="261" y="1154" font-family="Helvetica" font-size="13" fill="#000000">Medium</text>
            <text id="Large" xml:space="preserve" x="261" y="1584" font-family="Helvetica" font-size="13" fill="#000000">Large</text>
        </g>
        <g id="Guides">
            <g id="H-reference">
                <path id="Vector10" fill="#27aae1" stroke="none" d="M 339.993011 696 L 342.638 696 L 368.328003 628.866943 L 369.029999 628.866943 L 369.029999 625.541016 L 367.122986 625.541016 L 339.993011 696 Z M 350.687988 671.52002 L 385.981995 671.52002 L 385.230988 669.270996 L 351.437988 669.270996 L 350.687988 671.52002 Z M 394.118988 696 L 396.764008 696 L 369.638 625.541016 L 368.433014 625.541016 L 368.433014 628.866943 L 394.118988 696 Z"/>
            </g>
            <path id="Baseline-S" fill="none" stroke="#27aae1" stroke-width="0.5" stroke-linecap="round" stroke-linejoin="round" d="M 263 696 L 3036 696"/>
            <path id="Capline-S" fill="none" stroke="#27aae1" stroke-width="0.5" stroke-linecap="round" stroke-linejoin="round" d="M 263 625.541016 L 3036 625.541016"/>
            <g id="H-reference2">
                <path id="Vector11" fill="#27aae1" stroke="none" d="M 339.993011 1126 L 342.638 1126 L 368.328003 1058.869995 L 369.029999 1058.869995 L 369.029999 1055.540039 L 367.122986 1055.540039 L 339.993011 1126 Z M 350.687988 1101.52002 L 385.981995 1101.52002 L 385.230988 1099.27002 L 351.437988 1099.27002 L 350.687988 1101.52002 Z M 394.118988 1126 L 396.764008 1126 L 369.638 1055.540039 L 368.433014 1055.540039 L 368.433014 1058.869995 L 394.118988 1126 Z"/>
            </g>
            <path id="Baseline-M" fill="none" stroke="#27aae1" stroke-width="0.5" stroke-linecap="round" stroke-linejoin="round" d="M 263 1126 L 3036 1126"/>
            <path id="Capline-M" fill="none" stroke="#27aae1" stroke-width="0.5" stroke-linecap="round" stroke-linejoin="round" d="M 263 1055.540039 L 3036 1055.540039"/>
            <g id="H-reference3">
                <path id="Vector12" fill="#27aae1" stroke="none" d="M 339.993011 1556 L 342.638 1556 L 368.328003 1488.869995 L 369.029999 1488.869995 L 369.029999 1485.540039 L 367.122986 1485.540039 L 339.993011 1556 Z M 350.687988 1531.52002 L 385.981995 1531.52002 L 385.230988 1529.27002 L 351.437988 1529.27002 L 350.687988 1531.52002 Z M 394.118988 1556 L 396.764008 1556 L 369.638 1485.540039 L 368.433014 1485.540039 L 368.433014 1488.869995 L 394.118988 1556 Z"/>
            </g>
            <path id="Baseline-L" fill="none" stroke="#27aae1" stroke-width="0.5" stroke-linecap="round" stroke-linejoin="round" d="M 263 1556 L 3036 1556"/>
            <path id="Capline-L" fill="none" stroke="#27aae1" stroke-width="0.5" stroke-linecap="round" stroke-linejoin="round" d="M 263 1485.540039 L 3036 1485.540039"/>
            <path id="left-margin-Regular-M" fill="none" stroke="#ff3b30" stroke-width="0.5" stroke-linecap="round" stroke-linejoin="round" d="M 1407.51001 1030.780029 L 1407.51001 1150.119995"/>
            <path id="right-margin-Regular-M" fill="none" stroke="#ff3b30" stroke-width="0.5" stroke-linecap="round" stroke-linejoin="round" d="M 1492.180054 1030.780029 L 1492.180054 1150.119995"/>
        </g>
        <g id="Symbols">
            <g id="Black-L">
                <path id="crossflat" fill="#000000" fill-rule="evenodd" stroke="none" d="M 2983.310059 1467.660034 C 2985.530029 1465.449951 2989.120117 1465.449951 2991.340088 1467.660034 C 2993.550049 1469.880005 2993.550049 1473.469971 2991.340088 1475.689941 L 2954.570068 1512.459961 C 2952.350098 1514.670044 2948.76001 1514.670044 2946.540039 1512.459961 C 2944.330078 1510.23999 2944.330078 1506.650024 2946.540039 1504.430054 L 2983.310059 1467.660034 Z M 2884.659912 1467.660034 C 2882.449951 1469.880005 2882.449951 1473.469971 2884.659912 1475.689941 L 2921.429932 1512.459961 C 2923.649902 1514.670044 2927.23999 1514.670044 2929.459961 1512.459961 C 2931.669922 1510.23999 2931.669922 1506.650024 2929.459961 1504.430054 L 2892.689941 1467.660034 C 2890.469971 1465.449951 2886.879883 1465.449951 2884.659912 1467.660034 Z M 2946.540039 1529.540039 C 2944.330078 1531.76001 2944.330078 1535.349976 2946.540039 1537.569946 L 2983.310059 1574.339966 C 2985.530029 1576.550049 2989.120117 1576.550049 2991.340088 1574.339966 C 2993.550049 1572.119995 2993.550049 1568.530029 2991.340088 1566.310059 L 2954.570068 1529.540039 C 2952.350098 1527.329956 2948.76001 1527.329956 2946.540039 1529.540039 Z M 2929.459961 1529.540039 C 2927.23999 1527.329956 2923.649902 1527.329956 2921.429932 1529.540039 L 2884.659912 1566.310059 C 2882.449951 1568.530029 2882.449951 1572.119995 2884.659912 1574.339966 C 2886.879883 1576.550049 2890.469971 1576.550049 2892.689941 1574.339966 L 2929.459961 1537.569946 C 2931.669922 1535.349976 2931.669922 1531.76001 2929.459961 1529.540039 Z"/>
            </g>
            <g id="Heavy-L">
                <path id="crossflat2" fill="#000000" fill-rule="evenodd" stroke="none" d="M 2686.310059 1467.660034 C 2688.530029 1465.449951 2692.120117 1465.449951 2694.340088 1467.660034 C 2696.550049 1469.880005 2696.550049 1473.469971 2694.340088 1475.689941 L 2657.570068 1512.459961 C 2655.350098 1514.670044 2651.76001 1514.670044 2649.540039 1512.459961 C 2647.330078 1510.23999 2647.330078 1506.650024 2649.540039 1504.430054 L 2686.310059 1467.660034 Z M 2587.659912 1467.660034 C 2585.449951 1469.880005 2585.449951 1473.469971 2587.659912 1475.689941 L 2624.429932 1512.459961 C 2626.649902 1514.670044 2630.23999 1514.670044 2632.459961 1512.459961 C 2634.669922 1510.23999 2634.669922 1506.650024 2632.459961 1504.430054 L 2595.689941 1467.660034 C 2593.469971 1465.449951 2589.879883 1465.449951 2587.659912 1467.660034 Z M 2649.540039 1529.540039 C 2647.330078 1531.76001 2647.330078 1535.349976 2649.540039 1537.569946 L 2686.310059 1574.339966 C 2688.530029 1576.550049 2692.120117 1576.550049 2694.340088 1574.339966 C 2696.550049 1572.119995 2696.550049 1568.530029 2694.340088 1566.310059 L 2657.570068 1529.540039 C 2655.350098 1527.329956 2651.76001 1527.329956 2649.540039 1529.540039 Z M 2632.459961 1529.540039 C 2630.23999 1527.329956 2626.649902 1527.329956 2624.429932 1529.540039 L 2587.659912 1566.310059 C 2585.449951 1568.530029 2585.449951 1572.119995 2587.659912 1574.339966 C 2589.879883 1576.550049 2593.469971 1576.550049 2595.689941 1574.339966 L 2632.459961 1537.569946 C 2634.669922 1535.349976 2634.669922 1531.76001 2632.459961 1529.540039 Z"/>
            </g>
            <g id="Bold-L">
                <path id="crossflat3" fill="#000000" fill-rule="evenodd" stroke="none" d="M 2389.310059 1467.660034 C 2391.530029 1465.449951 2395.120117 1465.449951 2397.340088 1467.660034 C 2399.550049 1469.880005 2399.550049 1473.469971 2397.340088 1475.689941 L 2360.570068 1512.459961 C 2358.350098 1514.670044 2354.76001 1514.670044 2352.540039 1512.459961 C 2350.330078 1510.23999 2350.330078 1506.650024 2352.540039 1504.430054 L 2389.310059 1467.660034 Z M 2290.659912 1467.660034 C 2288.449951 1469.880005 2288.449951 1473.469971 2290.659912 1475.689941 L 2327.429932 1512.459961 C 2329.649902 1514.670044 2333.23999 1514.670044 2335.459961 1512.459961 C 2337.669922 1510.23999 2337.669922 1506.650024 2335.459961 1504.430054 L 2298.689941 1467.660034 C 2296.469971 1465.449951 2292.879883 1465.449951 2290.659912 1467.660034 Z M 2352.540039 1529.540039 C 2350.330078 1531.76001 2350.330078 1535.349976 2352.540039 1537.569946 L 2389.310059 1574.339966 C 2391.530029 1576.550049 2395.120117 1576.550049 2397.340088 1574.339966 C 2399.550049 1572.119995 2399.550049 1568.530029 2397.340088 1566.310059 L 2360.570068 1529.540039 C 2358.350098 1527.329956 2354.76001 1527.329956 2352.540039 1529.540039 Z M 2335.459961 1529.540039 C 2333.23999 1527.329956 2329.649902 1527.329956 2327.429932 1529.540039 L 2290.659912 1566.310059 C 2288.449951 1568.530029 2288.449951 1572.119995 2290.659912 1574.339966 C 2292.879883 1576.550049 2296.469971 1576.550049 2298.689941 1574.339966 L 2335.459961 1537.569946 C 2337.669922 1535.349976 2337.669922 1531.76001 2335.459961 1529.540039 Z"/>
            </g>
            <g id="Semibold-L">
                <path id="crossflat4" fill="#000000" fill-rule="evenodd" stroke="none" d="M 2092.310059 1467.660034 C 2094.530029 1465.449951 2098.120117 1465.449951 2100.340088 1467.660034 C 2102.550049 1469.880005 2102.550049 1473.469971 2100.340088 1475.689941 L 2063.570068 1512.459961 C 2061.350098 1514.670044 2057.76001 1514.670044 2055.540039 1512.459961 C 2053.330078 1510.23999 2053.330078 1506.650024 2055.540039 1504.430054 L 2092.310059 1467.660034 Z M 1993.660034 1467.660034 C 1991.449951 1469.880005 1991.449951 1473.469971 1993.660034 1475.689941 L 2030.430054 1512.459961 C 2032.650024 1514.670044 2036.23999 1514.670044 2038.459961 1512.459961 C 2040.670044 1510.23999 2040.670044 1506.650024 2038.459961 1504.430054 L 2001.689941 1467.660034 C 1999.469971 1465.449951 1995.880005 1465.449951 1993.660034 1467.660034 Z M 2055.540039 1529.540039 C 2053.330078 1531.76001 2053.330078 1535.349976 2055.540039 1537.569946 L 2092.310059 1574.339966 C 2094.530029 1576.550049 2098.120117 1576.550049 2100.340088 1574.339966 C 2102.550049 1572.119995 2102.550049 1568.530029 2100.340088 1566.310059 L 2063.570068 1529.540039 C 2061.350098 1527.329956 2057.76001 1527.329956 2055.540039 1529.540039 Z M 2038.459961 1529.540039 C 2036.23999 1527.329956 2032.650024 1527.329956 2030.430054 1529.540039 L 1993.660034 1566.310059 C 1991.449951 1568.530029 1991.449951 1572.119995 1993.660034 1574.339966 C 1995.880005 1576.550049 1999.469971 1576.550049 2001.689941 1574.339966 L 2038.459961 1537.569946 C 2040.670044 1535.349976 2040.670044 1531.76001 2038.459961 1529.540039 Z"/>
            </g>
            <g id="Medium-L">
                <path id="crossflat5" fill="#000000" fill-rule="evenodd" stroke="none" d="M 1796.310059 1467.660034 C 1798.530029 1465.449951 1802.119995 1465.449951 1804.339966 1467.660034 C 1806.550049 1469.880005 1806.550049 1473.469971 1804.339966 1475.689941 L 1767.569946 1512.459961 C 1765.349976 1514.670044 1761.76001 1514.670044 1759.540039 1512.459961 C 1757.329956 1510.23999 1757.329956 1506.650024 1759.540039 1504.430054 L 1796.310059 1467.660034 Z M 1697.660034 1467.660034 C 1695.449951 1469.880005 1695.449951 1473.469971 1697.660034 1475.689941 L 1734.430054 1512.459961 C 1736.650024 1514.670044 1740.23999 1514.670044 1742.459961 1512.459961 C 1744.670044 1510.23999 1744.670044 1506.650024 1742.459961 1504.430054 L 1705.689941 1467.660034 C 1703.469971 1465.449951 1699.880005 1465.449951 1697.660034 1467.660034 Z M 1759.540039 1529.540039 C 1757.329956 1531.76001 1757.329956 1535.349976 1759.540039 1537.569946 L 1796.310059 1574.339966 C 1798.530029 1576.550049 1802.119995 1576.550049 1804.339966 1574.339966 C 1806.550049 1572.119995 1806.550049 1568.530029 1804.339966 1566.310059 L 1767.569946 1529.540039 C 1765.349976 1527.329956 1761.76001 1527.329956 1759.540039 1529.540039 Z M 1742.459961 1529.540039 C 1740.23999 1527.329956 1736.650024 1527.329956 1734.430054 1529.540039 L 1697.660034 1566.310059 C 1695.449951 1568.530029 1695.449951 1572.119995 1697.660034 1574.339966 C 1699.880005 1576.550049 1703.469971 1576.550049 1705.689941 1574.339966 L 1742.459961 1537.569946 C 1744.670044 1535.349976 1744.670044 1531.76001 1742.459961 1529.540039 Z"/>
            </g>
            <g id="Regular-L">
                <path id="crossflat6" fill="#000000" fill-rule="evenodd" stroke="none" d="M 1499.310059 1467.660034 C 1501.530029 1465.449951 1505.119995 1465.449951 1507.339966 1467.660034 C 1509.550049 1469.880005 1509.550049 1473.469971 1507.339966 1475.689941 L 1470.569946 1512.459961 C 1468.349976 1514.670044 1464.76001 1514.670044 1462.540039 1512.459961 C 1460.329956 1510.23999 1460.329956 1506.650024 1462.540039 1504.430054 L 1499.310059 1467.660034 Z M 1400.660034 1467.660034 C 1398.449951 1469.880005 1398.449951 1473.469971 1400.660034 1475.689941 L 1437.430054 1512.459961 C 1439.650024 1514.670044 1443.23999 1514.670044 1445.459961 1512.459961 C 1447.670044 1510.23999 1447.670044 1506.650024 1445.459961 1504.430054 L 1408.689941 1467.660034 C 1406.469971 1465.449951 1402.880005 1465.449951 1400.660034 1467.660034 Z M 1462.540039 1529.540039 C 1460.329956 1531.76001 1460.329956 1535.349976 1462.540039 1537.569946 L 1499.310059 1574.339966 C 1501.530029 1576.550049 1505.119995 1576.550049 1507.339966 1574.339966 C 1509.550049 1572.119995 1509.550049 1568.530029 1507.339966 1566.310059 L 1470.569946 1529.540039 C 1468.349976 1527.329956 1464.76001 1527.329956 1462.540039 1529.540039 Z M 1445.459961 1529.540039 C 1443.23999 1527.329956 1439.650024 1527.329956 1437.430054 1529.540039 L 1400.660034 1566.310059 C 1398.449951 1568.530029 1398.449951 1572.119995 1400.660034 1574.339966 C 1402.880005 1576.550049 1406.469971 1576.550049 1408.689941 1574.339966 L 1445.459961 1537.569946 C 1447.670044 1535.349976 1447.670044 1531.76001 1445.459961 1529.540039 Z"/>
            </g>
            <g id="Light-L">
                <path id="crossflat7" fill="#000000" fill-rule="evenodd" stroke="none" d="M 1202.310059 1467.660034 C 1204.530029 1465.449951 1208.119995 1465.449951 1210.339966 1467.660034 C 1212.550049 1469.880005 1212.550049 1473.469971 1210.339966 1475.689941 L 1173.569946 1512.459961 C 1171.349976 1514.670044 1167.76001 1514.670044 1165.540039 1512.459961 C 1163.329956 1510.23999 1163.329956 1506.650024 1165.540039 1504.430054 L 1202.310059 1467.660034 Z M 1103.660034 1467.660034 C 1101.449951 1469.880005 1101.449951 1473.469971 1103.660034 1475.689941 L 1140.430054 1512.459961 C 1142.650024 1514.670044 1146.23999 1514.670044 1148.459961 1512.459961 C 1150.670044 1510.23999 1150.670044 1506.650024 1148.459961 1504.430054 L 1111.689941 1467.660034 C 1109.469971 1465.449951 1105.880005 1465.449951 1103.660034 1467.660034 Z M 1165.540039 1529.540039 C 1163.329956 1531.76001 1163.329956 1535.349976 1165.540039 1537.569946 L 1202.310059 1574.339966 C 1204.530029 1576.550049 1208.119995 1576.550049 1210.339966 1574.339966 C 1212.550049 1572.119995 1212.550049 1568.530029 1210.339966 1566.310059 L 1173.569946 1529.540039 C 1171.349976 1527.329956 1167.76001 1527.329956 1165.540039 1529.540039 Z M 1148.459961 1529.540039 C 1146.23999 1527.329956 1142.650024 1527.329956 1140.430054 1529.540039 L 1103.660034 1566.310059 C 1101.449951 1568.530029 1101.449951 1572.119995 1103.660034 1574.339966 C 1105.880005 1576.550049 1109.469971 1576.550049 1111.689941 1574.339966 L 1148.459961 1537.569946 C 1150.670044 1535.349976 1150.670044 1531.76001 1148.459961 1529.540039 Z"/>
            </g>
            <g id="Thin-L">
                <path id="crossflat8" fill="#000000" fill-rule="evenodd" stroke="none" d="M 906.314026 1467.660034 C 908.530029 1465.449951 912.122986 1465.449951 914.338013 1467.660034 C 916.554016 1469.880005 916.554016 1473.469971 914.338013 1475.689941 L 877.567993 1512.459961 C 875.35199 1514.670044 871.76001 1514.670044 869.544006 1512.459961 C 867.328003 1510.23999 867.328003 1506.650024 869.544006 1504.430054 L 906.314026 1467.660034 Z M 807.661987 1467.660034 C 805.445984 1469.880005 805.445984 1473.469971 807.661987 1475.689941 L 844.432007 1512.459961 C 846.64801 1514.670044 850.23999 1514.670044 852.455994 1512.459961 C 854.671997 1510.23999 854.671997 1506.650024 852.455994 1504.430054 L 815.685974 1467.660034 C 813.469971 1465.449951 809.877991 1465.449951 807.661987 1467.660034 Z M 869.544006 1529.540039 C 867.328003 1531.76001 867.328003 1535.349976 869.544006 1537.569946 L 906.314026 1574.339966 C 908.530029 1576.550049 912.122009 1576.550049 914.338013 1574.339966 C 916.554016 1572.119995 916.554016 1568.530029 914.338013 1566.310059 L 877.567993 1529.540039 C 875.35199 1527.329956 871.76001 1527.329956 869.544006 1529.540039 Z M 852.455994 1529.540039 C 850.23999 1527.329956 846.64801 1527.329956 844.432007 1529.540039 L 807.661987 1566.310059 C 805.445984 1568.530029 805.445984 1572.119995 807.661987 1574.339966 C 809.877991 1576.550049 813.469971 1576.550049 815.685974 1574.339966 L 852.455994 1537.569946 C 854.671997 1535.349976 854.671997 1531.76001 852.455994 1529.540039 Z"/>
            </g>
            <g id="Ultralight-L">
                <path id="crossflat9" fill="#000000" fill-rule="evenodd" stroke="none" d="M 607.314026 1467.660034 C 609.530029 1465.449951 613.122986 1465.449951 615.338013 1467.660034 C 617.554016 1469.880005 617.554016 1473.469971 615.338013 1475.689941 L 578.567993 1512.459961 C 576.35199 1514.670044 572.76001 1514.670044 570.544006 1512.459961 C 568.328003 1510.23999 568.328003 1506.650024 570.544006 1504.430054 L 607.314026 1467.660034 Z M 508.661987 1467.660034 C 506.446014 1469.880005 506.446014 1473.469971 508.661987 1475.689941 L 545.432007 1512.459961 C 547.64801 1514.670044 551.23999 1514.670044 553.455994 1512.459961 C 555.671997 1510.23999 555.671997 1506.650024 553.455994 1504.430054 L 516.685974 1467.660034 C 514.469971 1465.449951 510.877991 1465.449951 508.661987 1467.660034 Z M 570.544006 1529.540039 C 568.328003 1531.76001 568.328003 1535.349976 570.544006 1537.569946 L 607.314026 1574.339966 C 609.530029 1576.550049 613.122009 1576.550049 615.338013 1574.339966 C 617.554016 1572.119995 617.554016 1568.530029 615.338013 1566.310059 L 578.567993 1529.540039 C 576.35199 1527.329956 572.76001 1527.329956 570.544006 1529.540039 Z M 553.455994 1529.540039 C 551.23999 1527.329956 547.64801 1527.329956 545.432007 1529.540039 L 508.661987 1566.310059 C 506.446014 1568.530029 506.446014 1572.119995 508.661987 1574.339966 C 510.877991 1576.550049 514.469971 1576.550049 516.685974 1574.339966 L 553.455994 1537.569946 C 555.671997 1535.349976 555.671997 1531.76001 553.455994 1529.540039 Z"/>
            </g>
            <g id="Black-M">
                <path id="crossflat10" fill="#000000" fill-rule="evenodd" stroke="none" d="M 2983.310059 1036.660034 C 2985.530029 1034.449951 2989.120117 1034.449951 2991.340088 1036.660034 C 2993.550049 1038.880005 2993.550049 1042.469971 2991.340088 1044.689941 L 2954.570068 1081.459961 C 2952.350098 1083.670044 2948.76001 1083.670044 2946.540039 1081.459961 C 2944.330078 1079.23999 2944.330078 1075.650024 2946.540039 1073.430054 L 2983.310059 1036.660034 Z M 2884.659912 1036.660034 C 2882.449951 1038.880005 2882.449951 1042.469971 2884.659912 1044.689941 L 2921.429932 1081.459961 C 2923.649902 1083.670044 2927.23999 1083.670044 2929.459961 1081.459961 C 2931.669922 1079.23999 2931.669922 1075.650024 2929.459961 1073.430054 L 2892.689941 1036.660034 C 2890.469971 1034.449951 2886.879883 1034.449951 2884.659912 1036.660034 Z M 2946.540039 1098.540039 C 2944.330078 1100.76001 2944.330078 1104.349976 2946.540039 1106.569946 L 2983.310059 1143.339966 C 2985.530029 1145.550049 2989.120117 1145.550049 2991.340088 1143.339966 C 2993.550049 1141.119995 2993.550049 1137.530029 2991.340088 1135.310059 L 2954.570068 1098.540039 C 2952.350098 1096.329956 2948.76001 1096.329956 2946.540039 1098.540039 Z M 2929.459961 1098.540039 C 2927.23999 1096.329956 2923.649902 1096.329956 2921.429932 1098.540039 L 2884.659912 1135.310059 C 2882.449951 1137.530029 2882.449951 1141.119995 2884.659912 1143.339966 C 2886.879883 1145.550049 2890.469971 1145.550049 2892.689941 1143.339966 L 2929.459961 1106.569946 C 2931.669922 1104.349976 2931.669922 1100.76001 2929.459961 1098.540039 Z"/>
            </g>
            <g id="Heavy-M">
                <path id="crossflat11" fill="#000000" fill-rule="evenodd" stroke="none" d="M 2686.310059 1036.660034 C 2688.530029 1034.449951 2692.120117 1034.449951 2694.340088 1036.660034 C 2696.550049 1038.880005 2696.550049 1042.469971 2694.340088 1044.689941 L 2657.570068 1081.459961 C 2655.350098 1083.670044 2651.76001 1083.670044 2649.540039 1081.459961 C 2647.330078 1079.23999 2647.330078 1075.650024 2649.540039 1073.430054 L 2686.310059 1036.660034 Z M 2587.659912 1036.660034 C 2585.449951 1038.880005 2585.449951 1042.469971 2587.659912 1044.689941 L 2624.429932 1081.459961 C 2626.649902 1083.670044 2630.23999 1083.670044 2632.459961 1081.459961 C 2634.669922 1079.23999 2634.669922 1075.650024 2632.459961 1073.430054 L 2595.689941 1036.660034 C 2593.469971 1034.449951 2589.879883 1034.449951 2587.659912 1036.660034 Z M 2649.540039 1098.540039 C 2647.330078 1100.76001 2647.330078 1104.349976 2649.540039 1106.569946 L 2686.310059 1143.339966 C 2688.530029 1145.550049 2692.120117 1145.550049 2694.340088 1143.339966 C 2696.550049 1141.119995 2696.550049 1137.530029 2694.340088 1135.310059 L 2657.570068 1098.540039 C 2655.350098 1096.329956 2651.76001 1096.329956 2649.540039 1098.540039 Z M 2632.459961 1098.540039 C 2630.23999 1096.329956 2626.649902 1096.329956 2624.429932 1098.540039 L 2587.659912 1135.310059 C 2585.449951 1137.530029 2585.449951 1141.119995 2587.659912 1143.339966 C 2589.879883 1145.550049 2593.469971 1145.550049 2595.689941 1143.339966 L 2632.459961 1106.569946 C 2634.669922 1104.349976 2634.669922 1100.76001 2632.459961 1098.540039 Z"/>
            </g>
            <g id="Bold-M">
                <path id="crossflat12" fill="#000000" fill-rule="evenodd" stroke="none" d="M 2389.310059 1036.660034 C 2391.530029 1034.449951 2395.120117 1034.449951 2397.340088 1036.660034 C 2399.550049 1038.880005 2399.550049 1042.469971 2397.340088 1044.689941 L 2360.570068 1081.459961 C 2358.350098 1083.670044 2354.76001 1083.670044 2352.540039 1081.459961 C 2350.330078 1079.23999 2350.330078 1075.650024 2352.540039 1073.430054 L 2389.310059 1036.660034 Z M 2290.659912 1036.660034 C 2288.449951 1038.880005 2288.449951 1042.469971 2290.659912 1044.689941 L 2327.429932 1081.459961 C 2329.649902 1083.670044 2333.23999 1083.670044 2335.459961 1081.459961 C 2337.669922 1079.23999 2337.669922 1075.650024 2335.459961 1073.430054 L 2298.689941 1036.660034 C 2296.469971 1034.449951 2292.879883 1034.449951 2290.659912 1036.660034 Z M 2352.540039 1098.540039 C 2350.330078 1100.76001 2350.330078 1104.349976 2352.540039 1106.569946 L 2389.310059 1143.339966 C 2391.530029 1145.550049 2395.120117 1145.550049 2397.340088 1143.339966 C 2399.550049 1141.119995 2399.550049 1137.530029 2397.340088 1135.310059 L 2360.570068 1098.540039 C 2358.350098 1096.329956 2354.76001 1096.329956 2352.540039 1098.540039 Z M 2335.459961 1098.540039 C 2333.23999 1096.329956 2329.649902 1096.329956 2327.429932 1098.540039 L 2290.659912 1135.310059 C 2288.449951 1137.530029 2288.449951 1141.119995 2290.659912 1143.339966 C 2292.879883 1145.550049 2296.469971 1145.550049 2298.689941 1143.339966 L 2335.459961 1106.569946 C 2337.669922 1104.349976 2337.669922 1100.76001 2335.459961 1098.540039 Z"/>
            </g>
            <g id="Semibold-M">
                <path id="crossflat13" fill="#000000" fill-rule="evenodd" stroke="none" d="M 2092.310059 1036.660034 C 2094.530029 1034.449951 2098.120117 1034.449951 2100.340088 1036.660034 C 2102.550049 1038.880005 2102.550049 1042.469971 2100.340088 1044.689941 L 2063.570068 1081.459961 C 2061.350098 1083.670044 2057.76001 1083.670044 2055.540039 1081.459961 C 2053.330078 1079.23999 2053.330078 1075.650024 2055.540039 1073.430054 L 2092.310059 1036.660034 Z M 1993.660034 1036.660034 C 1991.449951 1038.880005 1991.449951 1042.469971 1993.660034 1044.689941 L 2030.430054 1081.459961 C 2032.650024 1083.670044 2036.23999 1083.670044 2038.459961 1081.459961 C 2040.670044 1079.23999 2040.670044 1075.650024 2038.459961 1073.430054 L 2001.689941 1036.660034 C 1999.469971 1034.449951 1995.880005 1034.449951 1993.660034 1036.660034 Z M 2055.540039 1098.540039 C 2053.330078 1100.76001 2053.330078 1104.349976 2055.540039 1106.569946 L 2092.310059 1143.339966 C 2094.530029 1145.550049 2098.120117 1145.550049 2100.340088 1143.339966 C 2102.550049 1141.119995 2102.550049 1137.530029 2100.340088 1135.310059 L 2063.570068 1098.540039 C 2061.350098 1096.329956 2057.76001 1096.329956 2055.540039 1098.540039 Z M 2038.459961 1098.540039 C 2036.23999 1096.329956 2032.650024 1096.329956 2030.430054 1098.540039 L 1993.660034 1135.310059 C 1991.449951 1137.530029 1991.449951 1141.119995 1993.660034 1143.339966 C 1995.880005 1145.550049 1999.469971 1145.550049 2001.689941 1143.339966 L 2038.459961 1106.569946 C 2040.670044 1104.349976 2040.670044 1100.76001 2038.459961 1098.540039 Z"/>
            </g>
            <g id="Medium-M">
                <path id="crossflat14" fill="#000000" fill-rule="evenodd" stroke="none" d="M 1796.310059 1038.660034 C 1798.530029 1036.449951 1802.119995 1036.449951 1804.339966 1038.660034 C 1806.550049 1040.880005 1806.550049 1044.469971 1804.339966 1046.689941 L 1767.569946 1083.459961 C 1765.349976 1085.670044 1761.76001 1085.670044 1759.540039 1083.459961 C 1757.329956 1081.23999 1757.329956 1077.650024 1759.540039 1075.430054 L 1796.310059 1038.660034 Z M 1697.660034 1038.660034 C 1695.449951 1040.880005 1695.449951 1044.469971 1697.660034 1046.689941 L 1734.430054 1083.459961 C 1736.650024 1085.670044 1740.23999 1085.670044 1742.459961 1083.459961 C 1744.670044 1081.23999 1744.670044 1077.650024 1742.459961 1075.430054 L 1705.689941 1038.660034 C 1703.469971 1036.449951 1699.880005 1036.449951 1697.660034 1038.660034 Z M 1759.540039 1100.540039 C 1757.329956 1102.76001 1757.329956 1106.349976 1759.540039 1108.569946 L 1796.310059 1145.339966 C 1798.530029 1147.550049 1802.119995 1147.550049 1804.339966 1145.339966 C 1806.550049 1143.119995 1806.550049 1139.530029 1804.339966 1137.310059 L 1767.569946 1100.540039 C 1765.349976 1098.329956 1761.76001 1098.329956 1759.540039 1100.540039 Z M 1742.459961 1100.540039 C 1740.23999 1098.329956 1736.650024 1098.329956 1734.430054 1100.540039 L 1697.660034 1137.310059 C 1695.449951 1139.530029 1695.449951 1143.119995 1697.660034 1145.339966 C 1699.880005 1147.550049 1703.469971 1147.550049 1705.689941 1145.339966 L 1742.459961 1108.569946 C 1744.670044 1106.349976 1744.670044 1102.76001 1742.459961 1100.540039 Z"/>
            </g>
            <g id="Regular-M">
                <path id="crossflat15" fill="#000000" fill-rule="evenodd" stroke="none" d="M 1499.310059 1038.660034 C 1501.530029 1036.449951 1505.119995 1036.449951 1507.339966 1038.660034 C 1509.550049 1040.880005 1509.550049 1044.469971 1507.339966 1046.689941 L 1470.569946 1083.459961 C 1468.349976 1085.670044 1464.76001 1085.670044 1462.540039 1083.459961 C 1460.329956 1081.23999 1460.329956 1077.650024 1462.540039 1075.430054 L 1499.310059 1038.660034 Z M 1400.660034 1038.660034 C 1398.449951 1040.880005 1398.449951 1044.469971 1400.660034 1046.689941 L 1437.430054 1083.459961 C 1439.650024 1085.670044 1443.23999 1085.670044 1445.459961 1083.459961 C 1447.670044 1081.23999 1447.670044 1077.650024 1445.459961 1075.430054 L 1408.689941 1038.660034 C 1406.469971 1036.449951 1402.880005 1036.449951 1400.660034 1038.660034 Z M 1462.540039 1100.540039 C 1460.329956 1102.76001 1460.329956 1106.349976 1462.540039 1108.569946 L 1499.310059 1145.339966 C 1501.530029 1147.550049 1505.119995 1147.550049 1507.339966 1145.339966 C 1509.550049 1143.119995 1509.550049 1139.530029 1507.339966 1137.310059 L 1470.569946 1100.540039 C 1468.349976 1098.329956 1464.76001 1098.329956 1462.540039 1100.540039 Z M 1445.459961 1100.540039 C 1443.23999 1098.329956 1439.650024 1098.329956 1437.430054 1100.540039 L 1400.660034 1137.310059 C 1398.449951 1139.530029 1398.449951 1143.119995 1400.660034 1145.339966 C 1402.880005 1147.550049 1406.469971 1147.550049 1408.689941 1145.339966 L 1445.459961 1108.569946 C 1447.670044 1106.349976 1447.670044 1102.76001 1445.459961 1100.540039 Z"/>
            </g>
            <g id="Light-M">
                <path id="crossflat16" fill="#000000" fill-rule="evenodd" stroke="none" d="M 1202.310059 1036.660034 C 1204.530029 1034.449951 1208.119995 1034.449951 1210.339966 1036.660034 C 1212.550049 1038.880005 1212.550049 1042.469971 1210.339966 1044.689941 L 1173.569946 1081.459961 C 1171.349976 1083.670044 1167.76001 1083.670044 1165.540039 1081.459961 C 1163.329956 1079.23999 1163.329956 1075.650024 1165.540039 1073.430054 L 1202.310059 1036.660034 Z M 1103.660034 1036.660034 C 1101.449951 1038.880005 1101.449951 1042.469971 1103.660034 1044.689941 L 1140.430054 1081.459961 C 1142.650024 1083.670044 1146.23999 1083.670044 1148.459961 1081.459961 C 1150.670044 1079.23999 1150.670044 1075.650024 1148.459961 1073.430054 L 1111.689941 1036.660034 C 1109.469971 1034.449951 1105.880005 1034.449951 1103.660034 1036.660034 Z M 1165.540039 1098.540039 C 1163.329956 1100.76001 1163.329956 1104.349976 1165.540039 1106.569946 L 1202.310059 1143.339966 C 1204.530029 1145.550049 1208.119995 1145.550049 1210.339966 1143.339966 C 1212.550049 1141.119995 1212.550049 1137.530029 1210.339966 1135.310059 L 1173.569946 1098.540039 C 1171.349976 1096.329956 1167.76001 1096.329956 1165.540039 1098.540039 Z M 1148.459961 1098.540039 C 1146.23999 1096.329956 1142.650024 1096.329956 1140.430054 1098.540039 L 1103.660034 1135.310059 C 1101.449951 1137.530029 1101.449951 1141.119995 1103.660034 1143.339966 C 1105.880005 1145.550049 1109.469971 1145.550049 1111.689941 1143.339966 L 1148.459961 1106.569946 C 1150.670044 1104.349976 1150.670044 1100.76001 1148.459961 1098.540039 Z"/>
            </g>
            <g id="Thin-M">
                <path id="crossflat17" fill="#000000" fill-rule="evenodd" stroke="none" d="M 906.314026 1036.660034 C 908.530029 1034.449951 912.122986 1034.449951 914.338013 1036.660034 C 916.554016 1038.880005 916.554016 1042.469971 914.338013 1044.689941 L 877.567993 1081.459961 C 875.35199 1083.670044 871.76001 1083.670044 869.544006 1081.459961 C 867.328003 1079.23999 867.328003 1075.650024 869.544006 1073.430054 L 906.314026 1036.660034 Z M 807.661987 1036.660034 C 805.445984 1038.880005 805.445984 1042.469971 807.661987 1044.689941 L 844.432007 1081.459961 C 846.64801 1083.670044 850.23999 1083.670044 852.455994 1081.459961 C 854.671997 1079.23999 854.671997 1075.650024 852.455994 1073.430054 L 815.685974 1036.660034 C 813.469971 1034.449951 809.877991 1034.449951 807.661987 1036.660034 Z M 869.544006 1098.540039 C 867.328003 1100.76001 867.328003 1104.349976 869.544006 1106.569946 L 906.314026 1143.339966 C 908.530029 1145.550049 912.122009 1145.550049 914.338013 1143.339966 C 916.554016 1141.119995 916.554016 1137.530029 914.338013 1135.310059 L 877.567993 1098.540039 C 875.35199 1096.329956 871.76001 1096.329956 869.544006 1098.540039 Z M 852.455994 1098.540039 C 850.23999 1096.329956 846.64801 1096.329956 844.432007 1098.540039 L 807.661987 1135.310059 C 805.445984 1137.530029 805.445984 1141.119995 807.661987 1143.339966 C 809.877991 1145.550049 813.469971 1145.550049 815.685974 1143.339966 L 852.455994 1106.569946 C 854.671997 1104.349976 854.671997 1100.76001 852.455994 1098.540039 Z"/>
            </g>
            <g id="Ultralight-M">
                <path id="crossflat18" fill="#000000" fill-rule="evenodd" stroke="none" d="M 607.314026 1036.660034 C 609.530029 1034.449951 613.122986 1034.449951 615.338013 1036.660034 C 617.554016 1038.880005 617.554016 1042.469971 615.338013 1044.689941 L 578.567993 1081.459961 C 576.35199 1083.670044 572.76001 1083.670044 570.544006 1081.459961 C 568.328003 1079.23999 568.328003 1075.650024 570.544006 1073.430054 L 607.314026 1036.660034 Z M 508.661987 1036.660034 C 506.446014 1038.880005 506.446014 1042.469971 508.661987 1044.689941 L 545.432007 1081.459961 C 547.64801 1083.670044 551.23999 1083.670044 553.455994 1081.459961 C 555.671997 1079.23999 555.671997 1075.650024 553.455994 1073.430054 L 516.685974 1036.660034 C 514.469971 1034.449951 510.877991 1034.449951 508.661987 1036.660034 Z M 570.544006 1098.540039 C 568.328003 1100.76001 568.328003 1104.349976 570.544006 1106.569946 L 607.314026 1143.339966 C 609.530029 1145.550049 613.122009 1145.550049 615.338013 1143.339966 C 617.554016 1141.119995 617.554016 1137.530029 615.338013 1135.310059 L 578.567993 1098.540039 C 576.35199 1096.329956 572.76001 1096.329956 570.544006 1098.540039 Z M 553.455994 1098.540039 C 551.23999 1096.329956 547.64801 1096.329956 545.432007 1098.540039 L 508.661987 1135.310059 C 506.446014 1137.530029 506.446014 1141.119995 508.661987 1143.339966 C 510.877991 1145.550049 514.469971 1145.550049 516.685974 1143.339966 L 553.455994 1106.569946 C 555.671997 1104.349976 555.671997 1100.76001 553.455994 1098.540039 Z"/>
            </g>
            <g id="Black-S">
                <path id="crossflat19" fill="#000000" fill-rule="evenodd" stroke="none" d="M 2982.310059 607.661987 C 2984.530029 605.446045 2988.120117 605.446045 2990.340088 607.661987 C 2992.550049 609.87793 2992.550049 613.469971 2990.340088 615.686035 L 2953.570068 652.456055 C 2951.350098 654.671997 2947.76001 654.671997 2945.540039 652.456055 C 2943.330078 650.23999 2943.330078 646.647949 2945.540039 644.432007 L 2982.310059 607.661987 Z M 2883.659912 607.661987 C 2881.449951 609.87793 2881.449951 613.469971 2883.659912 615.686035 L 2920.429932 652.456055 C 2922.649902 654.671997 2926.23999 654.671997 2928.459961 652.456055 C 2930.669922 650.23999 2930.669922 646.647949 2928.459961 644.432007 L 2891.689941 607.661987 C 2889.469971 605.446045 2885.879883 605.446045 2883.659912 607.661987 Z M 2945.540039 669.543945 C 2943.330078 671.76001 2943.330078 675.352051 2945.540039 677.567993 L 2982.310059 714.338013 C 2984.530029 716.553955 2988.120117 716.553955 2990.340088 714.338013 C 2992.550049 712.12207 2992.550049 708.530029 2990.340088 706.313965 L 2953.570068 669.543945 C 2951.350098 667.328003 2947.76001 667.328003 2945.540039 669.543945 Z M 2928.459961 669.543945 C 2926.23999 667.328003 2922.649902 667.328003 2920.429932 669.543945 L 2883.659912 706.313965 C 2881.449951 708.530029 2881.449951 712.123047 2883.659912 714.338013 C 2885.879883 716.553955 2889.469971 716.553955 2891.689941 714.338013 L 2928.459961 677.567993 C 2930.669922 675.352051 2930.669922 671.76001 2928.459961 669.543945 Z"/>
            </g>
            <g id="Heavy-S">
                <path id="crossflat20" fill="#000000" fill-rule="evenodd" stroke="none" d="M 2685.310059 607.661987 C 2687.530029 605.446045 2691.120117 605.446045 2693.340088 607.661987 C 2695.550049 609.87793 2695.550049 613.469971 2693.340088 615.686035 L 2656.570068 652.456055 C 2654.350098 654.671997 2650.76001 654.671997 2648.540039 652.456055 C 2646.330078 650.23999 2646.330078 646.647949 2648.540039 644.432007 L 2685.310059 607.661987 Z M 2586.659912 607.661987 C 2584.449951 609.87793 2584.449951 613.469971 2586.659912 615.686035 L 2623.429932 652.456055 C 2625.649902 654.671997 2629.23999 654.671997 2631.459961 652.456055 C 2633.669922 650.23999 2633.669922 646.647949 2631.459961 644.432007 L 2594.689941 607.661987 C 2592.469971 605.446045 2588.879883 605.446045 2586.659912 607.661987 Z M 2648.540039 669.543945 C 2646.330078 671.76001 2646.330078 675.352051 2648.540039 677.567993 L 2685.310059 714.338013 C 2687.530029 716.553955 2691.120117 716.553955 2693.340088 714.338013 C 2695.550049 712.12207 2695.550049 708.530029 2693.340088 706.313965 L 2656.570068 669.543945 C 2654.350098 667.328003 2650.76001 667.328003 2648.540039 669.543945 Z M 2631.459961 669.543945 C 2629.23999 667.328003 2625.649902 667.328003 2623.429932 669.543945 L 2586.659912 706.313965 C 2584.449951 708.530029 2584.449951 712.123047 2586.659912 714.338013 C 2588.879883 716.553955 2592.469971 716.553955 2594.689941 714.338013 L 2631.459961 677.567993 C 2633.669922 675.352051 2633.669922 671.76001 2631.459961 669.543945 Z"/>
            </g>
            <g id="Bold-S">
                <path id="crossflat21" fill="#000000" fill-rule="evenodd" stroke="none" d="M 2388.310059 607.661987 C 2390.530029 605.446045 2394.120117 605.446045 2396.340088 607.661987 C 2398.550049 609.87793 2398.550049 613.469971 2396.340088 615.686035 L 2359.570068 652.456055 C 2357.350098 654.671997 2353.76001 654.671997 2351.540039 652.456055 C 2349.330078 650.23999 2349.330078 646.647949 2351.540039 644.432007 L 2388.310059 607.661987 Z M 2289.659912 607.661987 C 2287.449951 609.87793 2287.449951 613.469971 2289.659912 615.686035 L 2326.429932 652.456055 C 2328.649902 654.671997 2332.23999 654.671997 2334.459961 652.456055 C 2336.669922 650.23999 2336.669922 646.647949 2334.459961 644.432007 L 2297.689941 607.661987 C 2295.469971 605.446045 2291.879883 605.446045 2289.659912 607.661987 Z M 2351.540039 669.543945 C 2349.330078 671.76001 2349.330078 675.352051 2351.540039 677.567993 L 2388.310059 714.338013 C 2390.530029 716.553955 2394.120117 716.553955 2396.340088 714.338013 C 2398.550049 712.12207 2398.550049 708.530029 2396.340088 706.313965 L 2359.570068 669.543945 C 2357.350098 667.328003 2353.76001 667.328003 2351.540039 669.543945 Z M 2334.459961 669.543945 C 2332.23999 667.328003 2328.649902 667.328003 2326.429932 669.543945 L 2289.659912 706.313965 C 2287.449951 708.530029 2287.449951 712.123047 2289.659912 714.338013 C 2291.879883 716.553955 2295.469971 716.553955 2297.689941 714.338013 L 2334.459961 677.567993 C 2336.669922 675.352051 2336.669922 671.76001 2334.459961 669.543945 Z"/>
            </g>
            <g id="Semibold-S">
                <path id="crossflat22" fill="#000000" fill-rule="evenodd" stroke="none" d="M 2091.310059 607.661987 C 2093.530029 605.446045 2097.120117 605.446045 2099.340088 607.661987 C 2101.550049 609.87793 2101.550049 613.469971 2099.340088 615.686035 L 2062.570068 652.456055 C 2060.350098 654.671997 2056.76001 654.671997 2054.540039 652.456055 C 2052.330078 650.23999 2052.330078 646.647949 2054.540039 644.432007 L 2091.310059 607.661987 Z M 1992.660034 607.661987 C 1990.449951 609.87793 1990.449951 613.469971 1992.660034 615.686035 L 2029.430054 652.456055 C 2031.650024 654.671997 2035.23999 654.671997 2037.459961 652.456055 C 2039.670044 650.23999 2039.670044 646.647949 2037.459961 644.432007 L 2000.689941 607.661987 C 1998.469971 605.446045 1994.880005 605.446045 1992.660034 607.661987 Z M 2054.540039 669.543945 C 2052.330078 671.76001 2052.330078 675.352051 2054.540039 677.567993 L 2091.310059 714.338013 C 2093.530029 716.553955 2097.120117 716.553955 2099.340088 714.338013 C 2101.550049 712.12207 2101.550049 708.530029 2099.340088 706.313965 L 2062.570068 669.543945 C 2060.350098 667.328003 2056.76001 667.328003 2054.540039 669.543945 Z M 2037.459961 669.543945 C 2035.23999 667.328003 2031.650024 667.328003 2029.430054 669.543945 L 1992.660034 706.313965 C 1990.449951 708.530029 1990.449951 712.123047 1992.660034 714.338013 C 1994.880005 716.553955 1998.469971 716.553955 2000.689941 714.338013 L 2037.459961 677.567993 C 2039.670044 675.352051 2039.670044 671.76001 2037.459961 669.543945 Z"/>
            </g>
            <g id="Medium-S">
                <path id="crossflat23" fill="#000000" fill-rule="evenodd" stroke="none" d="M 1795.310059 607.661987 C 1797.530029 605.446045 1801.119995 605.446045 1803.339966 607.661987 C 1805.550049 609.87793 1805.550049 613.469971 1803.339966 615.686035 L 1766.569946 652.456055 C 1764.349976 654.671997 1760.76001 654.671997 1758.540039 652.456055 C 1756.329956 650.23999 1756.329956 646.647949 1758.540039 644.432007 L 1795.310059 607.661987 Z M 1696.660034 607.661987 C 1694.449951 609.87793 1694.449951 613.469971 1696.660034 615.686035 L 1733.430054 652.456055 C 1735.650024 654.671997 1739.23999 654.671997 1741.459961 652.456055 C 1743.670044 650.23999 1743.670044 646.647949 1741.459961 644.432007 L 1704.689941 607.661987 C 1702.469971 605.446045 1698.880005 605.446045 1696.660034 607.661987 Z M 1758.540039 669.543945 C 1756.329956 671.76001 1756.329956 675.352051 1758.540039 677.567993 L 1795.310059 714.338013 C 1797.530029 716.553955 1801.119995 716.553955 1803.339966 714.338013 C 1805.550049 712.12207 1805.550049 708.530029 1803.339966 706.313965 L 1766.569946 669.543945 C 1764.349976 667.328003 1760.76001 667.328003 1758.540039 669.543945 Z M 1741.459961 669.543945 C 1739.23999 667.328003 1735.650024 667.328003 1733.430054 669.543945 L 1696.660034 706.313965 C 1694.449951 708.530029 1694.449951 712.123047 1696.660034 714.338013 C 1698.880005 716.553955 1702.469971 716.553955 1704.689941 714.338013 L 1741.459961 677.567993 C 1743.670044 675.352051 1743.670044 671.76001 1741.459961 669.543945 Z"/>
            </g>
            <g id="Regular-S">
                <path id="crossflat24" fill="#000000" fill-rule="evenodd" stroke="none" d="M 1498.310059 607.661987 C 1500.530029 605.446045 1504.119995 605.446045 1506.339966 607.661987 C 1508.550049 609.87793 1508.550049 613.469971 1506.339966 615.686035 L 1469.569946 652.456055 C 1467.349976 654.671997 1463.76001 654.671997 1461.540039 652.456055 C 1459.329956 650.23999 1459.329956 646.647949 1461.540039 644.432007 L 1498.310059 607.661987 Z M 1399.660034 607.661987 C 1397.449951 609.87793 1397.449951 613.469971 1399.660034 615.686035 L 1436.430054 652.456055 C 1438.650024 654.671997 1442.23999 654.671997 1444.459961 652.456055 C 1446.670044 650.23999 1446.670044 646.647949 1444.459961 644.432007 L 1407.689941 607.661987 C 1405.469971 605.446045 1401.880005 605.446045 1399.660034 607.661987 Z M 1461.540039 669.543945 C 1459.329956 671.76001 1459.329956 675.352051 1461.540039 677.567993 L 1498.310059 714.338013 C 1500.530029 716.553955 1504.119995 716.553955 1506.339966 714.338013 C 1508.550049 712.12207 1508.550049 708.530029 1506.339966 706.313965 L 1469.569946 669.543945 C 1467.349976 667.328003 1463.76001 667.328003 1461.540039 669.543945 Z M 1444.459961 669.543945 C 1442.23999 667.328003 1438.650024 667.328003 1436.430054 669.543945 L 1399.660034 706.313965 C 1397.449951 708.530029 1397.449951 712.123047 1399.660034 714.338013 C 1401.880005 716.553955 1405.469971 716.553955 1407.689941 714.338013 L 1444.459961 677.567993 C 1446.670044 675.352051 1446.670044 671.76001 1444.459961 669.543945 Z"/>
            </g>
            <g id="Light-S">
                <path id="crossflat25" fill="#000000" fill-rule="evenodd" stroke="none" d="M 1201.310059 607.661987 C 1203.530029 605.446045 1207.119995 605.446045 1209.339966 607.661987 C 1211.550049 609.87793 1211.550049 613.469971 1209.339966 615.686035 L 1172.569946 652.456055 C 1170.349976 654.671997 1166.76001 654.671997 1164.540039 652.456055 C 1162.329956 650.23999 1162.329956 646.647949 1164.540039 644.432007 L 1201.310059 607.661987 Z M 1102.660034 607.661987 C 1100.449951 609.87793 1100.449951 613.469971 1102.660034 615.686035 L 1139.430054 652.456055 C 1141.650024 654.671997 1145.23999 654.671997 1147.459961 652.456055 C 1149.670044 650.23999 1149.670044 646.647949 1147.459961 644.432007 L 1110.689941 607.661987 C 1108.469971 605.446045 1104.880005 605.446045 1102.660034 607.661987 Z M 1164.540039 669.543945 C 1162.329956 671.76001 1162.329956 675.352051 1164.540039 677.567993 L 1201.310059 714.338013 C 1203.530029 716.553955 1207.119995 716.553955 1209.339966 714.338013 C 1211.550049 712.12207 1211.550049 708.530029 1209.339966 706.313965 L 1172.569946 669.543945 C 1170.349976 667.328003 1166.76001 667.328003 1164.540039 669.543945 Z M 1147.459961 669.543945 C 1145.23999 667.328003 1141.650024 667.328003 1139.430054 669.543945 L 1102.660034 706.313965 C 1100.449951 708.530029 1100.449951 712.123047 1102.660034 714.338013 C 1104.880005 716.553955 1108.469971 716.553955 1110.689941 714.338013 L 1147.459961 677.567993 C 1149.670044 675.352051 1149.670044 671.76001 1147.459961 669.543945 Z"/>
            </g>
            <g id="Thin-S">
                <path id="crossflat26" fill="#000000" fill-rule="evenodd" stroke="none" d="M 905.314026 607.661987 C 907.530029 605.446045 911.122986 605.446045 913.338013 607.661987 C 915.554016 609.87793 915.554016 613.469971 913.338013 615.686035 L 876.567993 652.456055 C 874.35199 654.671997 870.76001 654.671997 868.544006 652.456055 C 866.328003 650.23999 866.328003 646.647949 868.544006 644.432007 L 905.314026 607.661987 Z M 806.661987 607.661987 C 804.445984 609.87793 804.445984 613.469971 806.661987 615.686035 L 843.432007 652.456055 C 845.64801 654.671997 849.23999 654.671997 851.455994 652.456055 C 853.671997 650.23999 853.671997 646.647949 851.455994 644.432007 L 814.685974 607.661987 C 812.469971 605.446045 808.877991 605.446045 806.661987 607.661987 Z M 868.544006 669.543945 C 866.328003 671.76001 866.328003 675.352051 868.544006 677.567993 L 905.314026 714.338013 C 907.530029 716.553955 911.122009 716.553955 913.338013 714.338013 C 915.554016 712.12207 915.554016 708.530029 913.338013 706.313965 L 876.567993 669.543945 C 874.35199 667.328003 870.76001 667.328003 868.544006 669.543945 Z M 851.455994 669.543945 C 849.23999 667.328003 845.64801 667.328003 843.432007 669.543945 L 806.661987 706.313965 C 804.445984 708.530029 804.445984 712.123047 806.661987 714.338013 C 808.877991 716.553955 812.469971 716.553955 814.685974 714.338013 L 851.455994 677.567993 C 853.671997 675.352051 853.671997 671.76001 851.455994 669.543945 Z"/>
            </g>
            <g id="Ultralight-S">
                <path id="crossflat27" fill="#000000" fill-rule="evenodd" stroke="none" d="M 607.314026 607.661987 C 609.530029 605.446045 613.122986 605.446045 615.338013 607.661987 C 617.554016 609.87793 617.554016 613.469971 615.338013 615.686035 L 578.567993 652.456055 C 576.35199 654.671997 572.76001 654.671997 570.544006 652.456055 C 568.328003 650.23999 568.328003 646.647949 570.544006 644.432007 L 607.314026 607.661987 Z M 508.661987 607.661987 C 506.446014 609.87793 506.446014 613.469971 508.661987 615.686035 L 545.432007 652.456055 C 547.64801 654.671997 551.23999 654.671997 553.455994 652.456055 C 555.671997 650.23999 555.671997 646.647949 553.455994 644.432007 L 516.685974 607.661987 C 514.469971 605.446045 510.877991 605.446045 508.661987 607.661987 Z M 570.544006 669.543945 C 568.328003 671.76001 568.328003 675.352051 570.544006 677.567993 L 607.314026 714.338013 C 609.530029 716.553955 613.122009 716.553955 615.338013 714.338013 C 617.554016 712.12207 617.554016 708.530029 615.338013 706.313965 L 578.567993 669.543945 C 576.35199 667.328003 572.76001 667.328003 570.544006 669.543945 Z M 553.455994 669.543945 C 551.23999 667.328003 547.64801 667.328003 545.432007 669.543945 L 508.661987 706.313965 C 506.446014 708.530029 506.446014 712.123047 508.661987 714.338013 C 510.877991 716.553955 514.469971 716.553955 516.685974 714.338013 L 553.455994 677.567993 C 555.671997 675.352051 555.671997 671.76001 553.455994 669.543945 Z"/>
            </g>
        </g>
    </g>
</svg>
