<?xml version="1.0" encoding="UTF-8"?>
<!-- Generated by Pixelmator Pro 2.4.2 -->
<svg width="16" height="15" viewBox="0 0 16 15" xmlns="http://www.w3.org/2000/svg" xmlns:xlink="http://www.w3.org/1999/xlink">
    <path id="Path-3" fill="#ffffff" stroke="none" d="M 1.668934 0.797647 C 1.96644 0.790588 3.356009 1.898823 4.752834 3.257647 C 6.14966 4.62 7.042177 5.975294 6.737415 6.271765 C 6.432653 6.568235 5.039455 5.7 3.639002 4.341176 C 2.242177 2.982353 1.102948 1.630589 1.110204 1.341176 C 1.11746 1.051764 1.371428 0.804706 1.668934 0.797647 Z M 14.327437 0.811765 C 14.646712 0.811765 14.918821 1.051764 14.926077 1.341176 C 14.933333 1.630589 13.794105 2.982353 12.39728 4.341176 C 10.996825 5.7 9.603628 6.568235 9.298865 6.271765 C 8.994104 5.975294 9.868481 4.623529 11.243537 3.271765 C 12.614966 1.92 14.004535 0.811765 14.327437 0.811765 Z M 6.345578 8.57647 C 6.664853 8.57647 6.936961 8.816471 6.944218 9.105883 C 6.951474 9.395294 5.812245 10.747059 4.41542 12.105883 C 3.014966 13.464705 1.621769 14.332941 1.317007 14.036471 C 1.012245 13.74 1.886621 12.388235 3.261678 11.036471 C 4.633106 9.684706 6.022676 8.57647 6.345578 8.57647 Z M 9.650794 8.562353 C 9.948299 8.555294 11.337869 9.663528 12.734694 11.022352 C 14.131519 12.384706 15.024036 13.74 14.719275 14.036471 C 14.414512 14.332941 13.021315 13.464705 11.620861 12.105883 C 10.224036 10.747059 9.084807 9.395294 9.092064 9.105883 C 9.099319 8.816471 9.353288 8.569412 9.650794 8.562353 Z"/>
</svg>
